<?xml version="1.0" encoding="utf-8"?>
<!-- Generator: Adobe Illustrator 16.0.0, SVG Export Plug-In . SVG Version: 6.00 Build 0)  -->
<!DOCTYPE svg PUBLIC "-//W3C//DTD SVG 1.1//EN" "http://www.w3.org/Graphics/SVG/1.1/DTD/svg11.dtd">
<svg version="1.1" id="Capa_1" xmlns="http://www.w3.org/2000/svg" xmlns:xlink="http://www.w3.org/1999/xlink" x="0px" y="0px"
	 width="256px" height="256px" viewBox="0 0 256 256" enable-background="new 0 0 256 256" xml:space="preserve">
<g>
	<g>
		<g>
			<g>
				<g>
					<g>
						<defs>
							<path id="SVGID_1_" d="M257.041,224.036c0,17.674-14.331,32.005-32.005,32.005H33.005C15.328,256.041,1,241.71,1,224.036
								V32.005C1,14.327,15.328,0,33.005,0h192.031c17.674,0,32.005,14.327,32.005,32.005V224.036L257.041,224.036z"/>
						</defs>
						<defs>
							<path id="SVGID_2_" d="M257.041,224.036c0,17.674-14.331,32.005-32.005,32.005H33.005C15.328,256.041,1,241.71,1,224.036
								V32.005C1,14.327,15.328,0,33.005,0h192.031c17.674,0,32.005,14.327,32.005,32.005V224.036L257.041,224.036z"/>
						</defs>
						<clipPath id="SVGID_3_">
							<use xlink:href="#SVGID_1_"  overflow="visible"/>
						</clipPath>
						<clipPath id="SVGID_4_" clip-path="url(#SVGID_3_)">
							<use xlink:href="#SVGID_2_"  overflow="visible"/>
						</clipPath>
						
							<linearGradient id="SVGID_5_" gradientUnits="userSpaceOnUse" x1="179.251" y1="-10.9995" x2="435.292" y2="-267.0405" gradientTransform="matrix(1 0 0 -1 -178 -11)">
							<stop  offset="0" style="stop-color:#69C33A"/>
							<stop  offset="1" style="stop-color:#00690B"/>
						</linearGradient>
						<rect x="1.25" clip-path="url(#SVGID_4_)" fill="url(#SVGID_5_)" width="256.041" height="256.041"/>
						<polygon opacity="0.1" clip-path="url(#SVGID_4_)" enable-background="new    " points="214.059,54.365 256.712,97.118 
							256.712,256.021 150.109,256.021 29.004,134.913 81.147,100.962 40.002,61.408 68.794,32.618 106.415,70.238 152.299,116.125 
													"/>
					</g>
				</g>
			</g>
			<g>
				<defs>
					<path id="SVGID_6_" d="M257.041,192.031c0,35.354-28.655,64.01-64.01,64.01H65.01c-35.352,0-64.01-28.654-64.01-64.01V64.01
						C1,28.657,29.659,0,65.01,0h128.021c35.354,0,64.01,28.657,64.01,64.01V192.031L257.041,192.031z"/>
				</defs>
				<clipPath id="SVGID_7_">
					<use xlink:href="#SVGID_6_"  overflow="visible"/>
				</clipPath>
				<path clip-path="url(#SVGID_7_)" fill="#FFFFFF" d="M204.119,107.013c-4.729-1.394-7.571-1.586-9.917-3.305
					c-2.126-1.563-11.063-2.231,8.93-15.871c26.538-19.068,18.449-22.788,17.521-26.453c-0.155-0.585-1.071-1.727-2.51-3.228
					c-7.511-7.845-29.229-25.54-29.229-25.54c30.2,24.973-16.349,54.775-31.069,42.324c-13.972-11.814-27.617-11.033-28.972-10.923
					c-2.455-0.137-15.42-0.267-28.672,10.944C85.48,87.41,38.931,57.611,69.123,32.639c0,0-30.809,25.1-31.734,28.765
					c-0.927,3.666-9.018,7.385,17.522,26.451c19.988,13.644,11.055,14.311,8.924,15.873c-2.338,1.719-5.183,1.911-9.918,3.309
					c-4.73,1.392-28.453,20.626-24.462,27.773c3.993,7.146,26.426,1.031,37.689-11.903c8.397-10.86,9.273-12.884,13.221-10.91
					c3.949,1.973,5.859,3.224,5.62,8.927c-0.242,5.703-1.613,33.503,1.65,38.024c3.268,4.522,16.202,13.888,16.202,13.888v31.08
					l14.874,19.514h10.579v-0.022h10.039l14.877-19.515v-31.074c0,0,12.931-9.368,16.203-13.891c3.261-4.52,1.89-32.32,1.644-38.022
					c-0.236-5.705,1.68-6.956,5.627-8.929c3.95-1.975,4.825,0.052,13.221,10.912c11.265,12.93,33.692,19.049,37.684,11.902
					C232.578,127.642,208.852,108.411,204.119,107.013z"/>
			</g>
		</g>
	</g>
</g>
</svg>
